:SAMPLES-PER-SECOND 30
:FULLY-SPECIFIED
:DEGREES
563
root  91.3628 34.0112 -9.90826 171.628 0.638318 170.207
RightUpLeg  -33.1861 -3.59329 -9.95267
RightLeg  55.9992 6.57249 10.0207
RightFoot  -13.3377 -0.310117 -12.7933
RightToes  -1.16417e-010 0 -3.6325e-017
Spine  4.25618 0.295213 -14.983
Spine1  7.56421 -1.01947 -6.45685
HEad  -1.93615 -42.0789 4.6877
LeftShoulder1  -0.640038 5.05724 -35.0196
LeftArm  4.40081 7.94722 -40.275
LeftForeArm  26.3953 -12.6167 -8.79328
LeftHand  -0.00622352 12.5791 0.955062
RightShoulder  -0.7829 -5.77702 27.8039
RightArm  13.8452 5.86336 52.189
RightForeArm  21.8602 7.84318 7.28304
RightHand  0.0121442 2.41593 -0.017738
LeftUpLeg  10.8639 7.90167 -10.9618
LeftLeg  37.7307 0.267168 2.4287
LeftFoot  -37.0118 1.1217 3.91371
LeftToes  3.13772e-010 -3.14513e-011 3.96022e-013
564
root  91.4932 33.5581 -10.9826 171.768 -0.687156 170.116
RightUpLeg  -32.8012 -4.28488 -10.4045
RightLeg  58.9221 6.36615 10.8774
RightFoot  -16.5966 -0.528741 -8.95112
RightToes  -1.16417e-010 0 -3.6325e-017
Spine  4.13547 0.155945 -15.4345
Spine1  6.94666 -1.90422 -6.27106
HEad  -4.64623 -36.8201 2.99599
LeftShoulder1  -0.667673 5.11577 -35.2398
LeftArm  0.768279 10.3263 -40.415
LeftForeArm  29.189 -12.7135 -7.90512
LeftHand  -0.142391 11.2239 -1.46523
RightShoulder  -0.870741 -5.98344 28.5456
RightArm  14.5454 5.71835 51.6128
RightForeArm  20.2646 8.50457 7.37259
RightHand  0.0208276 2.78051 0.0828895
LeftUpLeg  11.4675 9.24367 -8.30188
LeftLeg  41.4463 -2.50475 -1.45731
LeftFoot  -37.5912 1.21289 4.21811
LeftToes  3.13772e-010 -3.14513e-011 3.96022e-013
565
root  91.5473 33.4199 -11.9419 173.72 -2.62363 169.013
RightUpLeg  -33.7976 -5.68624 -11.9323
RightLeg  60.6974 5.86729 10.7875
RightFoot  -18.4508 -0.629479 -8.07826
RightToes  -1.16417e-010 0 -3.6325e-017
Spine  1.92631 -0.392347 -16.2066
Spine1  7.50858 -2.41084 -6.30834
HEad  -13.1545 -27.4359 2.03555
LeftShoulder1  -0.652824 5.09166 -34.8135
LeftArm  2.08678 10.2743 -40.895
LeftForeArm  29.4583 -11.9626 -8.63769
LeftHand  -0.036932 11.4224 0.358895
RightShoulder  -0.968866 -6.1963 29.3373
RightArm  15.2284 4.512 50.8052
RightForeArm  18.8446 10.4514 7.01963
RightHand  0.0214281 2.94614 0.0605793
LeftUpLeg  9.46349 4.5621 -11.3512
LeftLeg  44.16 -0.757495 -0.29826
LeftFoot  -35.9386 0.224501 0.0551457
LeftToes  3.13772e-010 -3.14513e-011 3.96022e-013
566
root  91.5936 33.8873 -12.5537 176.065 -5.4494 169.159
RightUpLeg  -33.2991 -9.25979 -11.9564
RightLeg  59.0544 6.08019 10.4456
RightFoot  -18.115 -0.702795 -9.78032
RightToes  -1.16417e-010 0 -3.6325e-017
Spine  0.548215 -1.12162 -14.2226
Spine1  8.08861 -2.41601 -7.28165
HEad  -9.36579 -25.6101 0.800097
LeftShoulder1  -0.482243 4.73782 -32.9689
LeftArm  4.66357 10.9031 -42.1761
LeftForeArm  28.6591 -14.0394 -7.88244
LeftHand  -0.0675428 13.0573 -0.0136966
RightShoulder  -1.20398 -6.72377 30.8978
RightArm  16.9566 2.94224 49.3738
RightForeArm  15.8425 12.7868 6.58003
RightHand  0.021619 3.8407 0.030675
LeftUpLeg  7.15825 5.47279 -8.7964
LeftLeg  45.481 -4.44959 -4.28488
LeftFoot  -30.9746 0.0732603 -0.699473
LeftToes  3.13772e-010 -3.14513e-011 3.96022e-013
567
root  91.7601 34.3121 -13.0599 176.862 -7.79986 169.403
RightUpLeg  -31.4945 -11.4989 -11.6849
RightLeg  57.2224 6.20371 9.91362
RightFoot  -17.9071 -0.70549 -10.1617
RightToes  -1.16417e-010 0 -3.6325e-017
Spine  1.88685 -0.507755 -13.1934
Spine1  7.07546 -2.01756 -6.14609
HEad  -8.48671 -19.5571 -2.14057
LeftShoulder1  -0.546743 4.89754 -33.1114
LeftArm  11.0454 9.86816 -42.1882
LeftForeArm  26.1794 -17.0314 -6.7962
LeftHand  -0.277517 11.3012 -3.87346
RightShoulder  -1.11351 -6.55955 29.9175
RightArm  17.8397 0.683572 49.4582
RightForeArm  13.859 14.6101 6.0348
RightHand  -0.0258276 4.0776 -0.51808
LeftUpLeg  5.85889 5.96111 -6.58506
LeftLeg  46.9751 -6.42954 -6.78987
LeftFoot  -26.0132 -0.247663 -3.13352
LeftToes  3.13772e-010 -3.14513e-011 3.96022e-013
568
root  91.9183 34.7515 -13.5214 178.308 -11.1143 169.366
RightUpLeg  -30.0451 -14.5512 -11.6936
RightLeg  55.0814 6.18186 9.09046
RightFoot  -17.7196 -0.694122 -10.2791
RightToes  -1.16417e-010 0 -3.6325e-017
Spine  2.34266 -0.325516 -11.9834
Spine1  6.87819 -1.64899 -5.95308
HEad  -8.27453 -13.1526 -4.9209
LeftShoulder1  -0.497369 4.85055 -30.9167
LeftArm  13.8066 9.13262 -44.219
LeftForeArm  21.4212 -19.6065 -5.51862
LeftHand  -0.0633047 10.1958 -0.236437
RightShoulder  -1.10409 -6.53158 29.939
RightArm  18.1267 -0.471499 48.8951
RightForeArm  14.648 15.548 5.64064
RightHand  0.167985 3.77913 1.92441
LeftUpLeg  3.73525 6.08848 -4.80883
LeftLeg  48.1061 -7.56752 -8.40264
LeftFoot  -21.7257 -0.350137 -5.27614
LeftToes  3.13772e-010 -3.14513e-011 3.96022e-013
